<svg width="40" height="40" viewBox="0 0 40 40" fill="none" xmlns="http://www.w3.org/2000/svg">
<path d="M19.1666 3.33337L9.99996 18.3334H28.3333L19.1666 3.33337ZM19.1666 9.73337L22.3833 15H15.9333L19.1666 9.73337ZM28.3333 21.6667C24.1833 21.6667 20.8333 25.0167 20.8333 29.1667C20.8333 33.3167 24.1833 36.6667 28.3333 36.6667C32.4833 36.6667 35.8333 33.3167 35.8333 29.1667C35.8333 25.0167 32.4833 21.6667 28.3333 21.6667ZM28.3333 33.3334C26.0333 33.3334 24.1666 31.4667 24.1666 29.1667C24.1666 26.8667 26.0333 25 28.3333 25C30.6333 25 32.5 26.8667 32.5 29.1667C32.5 31.4667 30.6333 33.3334 28.3333 33.3334ZM4.16663 35.8334H17.5V22.5H4.16663V35.8334ZM7.49996 25.8334H14.1666V32.5H7.49996V25.8334Z" fill="#0086FF"/>
</svg>
