<svg width="40" height="41" viewBox="0 0 40 41" fill="none" xmlns="http://www.w3.org/2000/svg">
<path d="M35.1438 4.25027H7.73082C6.87286 4.25027 6.01651 4.25027 5.15855 4.25027C4.75443 4.25027 4.3487 4.24706 3.94297 4.25027C3.92533 4.25027 3.90769 4.25027 3.89005 4.25027C3.31274 4.25027 2.81881 4.74099 2.81881 5.31991V29.3893C2.81881 29.4293 2.81881 29.4694 2.81881 29.5079C2.81881 29.7886 2.8156 30.0692 2.81881 30.3498C2.81881 30.3547 2.81881 30.3579 2.81881 30.3627C2.81881 30.3643 2.81881 30.3675 2.81881 30.3691C2.81881 30.3835 2.81881 30.398 2.81881 30.4124C2.81881 30.4172 2.81881 30.422 2.81881 30.4268C2.81881 30.4653 2.82362 30.5054 2.83164 30.5423C2.89899 31.0619 3.35283 31.482 3.88845 31.482C3.93496 31.482 3.98146 31.482 4.02636 31.482C4.22361 31.482 4.42087 31.482 4.61972 31.482C5.15213 31.482 5.68615 31.482 6.21857 31.482C7.01238 31.482 7.80459 31.482 8.5984 31.482C9.5622 31.482 10.5276 31.482 11.4914 31.482C12.5482 31.482 13.6034 31.482 14.6602 31.4804C15.7267 31.4804 16.7931 31.4804 17.8595 31.4788C18.8538 31.4788 19.8481 31.4788 20.8424 31.4772C21.6827 31.4772 22.523 31.4772 23.3633 31.4772C23.9679 31.4772 24.5709 31.4772 25.1754 31.4772C25.4609 31.4772 25.7479 31.4788 26.0334 31.4772C26.0462 31.4772 26.0575 31.4772 26.0703 31.4772C26.0719 31.4772 26.0735 31.4772 26.0751 31.4772C26.6252 31.4772 27.1752 31.4772 27.7253 31.4772C28.9168 31.4772 30.1099 31.4772 31.3014 31.4756C32.1594 31.4756 33.0157 31.4756 33.8737 31.4756C34.2794 31.4756 34.6835 31.4788 35.0893 31.4756C35.1069 31.4756 35.1245 31.4756 35.1422 31.4756C35.7211 31.4756 36.2118 30.9849 36.2118 30.406V6.33663C36.2118 6.01109 36.2166 5.68715 36.2118 5.3616C36.2118 5.34717 36.2118 5.33434 36.2118 5.31991C36.2118 4.76023 35.7195 4.22461 35.1422 4.25027H35.1438ZM21.2096 14.9419C21.5913 15.0044 21.9633 15.1054 22.3241 15.2466C22.6673 15.4021 22.9913 15.593 23.2959 15.8143C23.5894 16.0532 23.8556 16.321 24.0962 16.6145C24.3175 16.9192 24.5083 17.2431 24.6639 17.5863C24.8034 17.9423 24.9044 18.3112 24.967 18.6896C25.0167 19.1723 25.0038 19.6631 25.0038 20.149V28.9563C25.0038 29.0814 25.0038 29.208 25.0038 29.3331C24.8579 29.3331 24.7104 29.3331 24.5644 29.3331C23.0714 29.3331 21.5768 29.3347 20.0838 29.3363C18.5764 29.3363 17.0689 29.3379 15.5615 29.3395V24.2944C15.5615 24.0138 15.5631 23.7331 15.5615 23.4525C15.5615 23.4477 15.5615 23.4445 15.5615 23.4397C15.5663 23.2921 15.5358 23.1542 15.4701 23.0275C15.4268 22.8944 15.353 22.7806 15.2488 22.6827C15.0387 22.4903 14.7821 22.37 14.4919 22.37H5.03186C5.02545 21.5858 5.01903 20.8033 5.01262 20.0191C5.0062 19.2702 4.99979 18.5228 4.99337 17.7739C4.98856 17.1421 4.98215 16.5086 4.97734 15.8768C4.97413 15.5545 4.97252 15.2321 4.96932 14.9098H20.1223C20.2875 14.9098 20.4527 14.9098 20.6162 14.9098C20.8151 14.9098 21.0123 14.9242 21.208 14.9451L21.2096 14.9419ZM13.4174 25.7858V29.2946H5.08959C5.08959 29.1182 5.08638 28.9402 5.08478 28.7638C5.07997 28.1689 5.07516 27.5739 5.07035 26.979C5.06393 26.2557 5.05752 25.5341 5.05271 24.8108C5.05271 24.7098 5.0511 24.6103 5.0495 24.5093H13.4158V25.7874L13.4174 25.7858ZM32.0311 29.3267C30.9085 29.3267 29.7876 29.3267 28.665 29.3283C28.1566 29.3283 27.6483 29.3283 27.1399 29.3283V19.9774C27.1399 19.7496 27.1399 19.5203 27.1399 19.2926C27.1367 18.1364 26.8288 16.9769 26.2387 15.9794C25.6357 14.9579 24.7344 14.0823 23.6824 13.5307C22.7315 13.0335 21.6779 12.7673 20.6034 12.7657C20.4238 12.7657 20.2442 12.7657 20.0646 12.7657H4.9613V6.39115H10.3672C11.7352 6.39115 13.1047 6.39115 14.4726 6.39115H33.8737C33.9394 6.39115 34.0068 6.39115 34.0725 6.39115V29.3251C33.3926 29.3251 32.711 29.3251 32.0311 29.3251V29.3267Z" fill="#0086FF"/>
<path d="M7.65701 37.5808H31.0945C31.4201 37.5808 31.7456 37.584 32.0727 37.5808C32.0872 37.5808 32.1016 37.5808 32.116 37.5808C32.3903 37.5808 32.6789 37.4621 32.873 37.2681C33.059 37.082 33.1985 36.7773 33.1857 36.5111C33.16 35.9306 32.7158 35.4415 32.116 35.4415H8.0002C7.67465 35.4415 7.34911 35.4383 7.02196 35.4415C7.00753 35.4415 6.9931 35.4415 6.97866 35.4415C6.70444 35.4415 6.41578 35.5602 6.22174 35.7542C6.03571 35.9402 5.89619 36.2449 5.90902 36.5111C5.93468 37.0917 6.37889 37.5808 6.97866 37.5808H7.65541H7.65701Z" fill="#0086FF"/>
</svg>
