<svg width="40" height="41" viewBox="0 0 40 41" fill="none" xmlns="http://www.w3.org/2000/svg">
<path d="M13.2354 31.4966H26.9399C27.1315 31.4966 27.3217 31.498 27.5133 31.4966C27.5218 31.4966 27.5302 31.4966 27.5387 31.4966C27.6387 31.4966 27.7401 31.4755 27.8387 31.4431C27.9866 31.398 28.1247 31.3262 28.2318 31.2106C28.4022 31.0402 28.529 30.7626 28.5192 30.5175V12.0937C28.5192 11.8443 28.5206 11.5964 28.5192 11.347C28.5192 11.3357 28.5192 11.3259 28.5192 11.3146C28.5192 10.7863 28.0698 10.3341 27.5401 10.3355C27.4091 10.3355 27.278 10.3355 27.147 10.3355C26.7906 10.3355 26.4342 10.3355 26.0778 10.3369C25.5537 10.3369 25.0282 10.3383 24.5042 10.3397C23.8618 10.3397 23.2194 10.3411 22.5756 10.3426C21.8712 10.3426 21.1668 10.3454 20.4638 10.3454C19.7566 10.3454 19.048 10.3482 18.3408 10.3482C17.6773 10.3482 17.0152 10.3496 16.3516 10.351C15.7909 10.351 15.2317 10.3524 14.671 10.3538C14.2681 10.3538 13.8652 10.3538 13.4637 10.3552C13.2735 10.3552 13.0833 10.3552 12.8931 10.3552C12.8846 10.3552 12.8762 10.3552 12.8677 10.3552C12.338 10.3552 11.8887 10.8032 11.8887 11.3343C11.8887 11.5062 11.8887 11.6767 11.8887 11.8485C11.8887 12.3148 11.8887 12.7811 11.8872 13.246C11.8872 13.9321 11.8858 14.6196 11.8844 15.3056C11.8844 16.1467 11.8816 16.9863 11.8816 17.8273C11.8816 18.7473 11.8788 19.6686 11.8788 20.5885C11.8788 21.5141 11.876 22.4411 11.876 23.3666C11.876 24.233 11.8732 25.0994 11.8732 25.9658C11.8732 26.6984 11.8717 27.4295 11.8703 28.1621C11.8703 28.6861 11.8703 29.2116 11.8689 29.7357C11.8689 29.985 11.8661 30.2344 11.8689 30.4837C11.8689 30.495 11.8689 30.5048 11.8689 30.5161C11.8689 31.0458 12.3183 31.4952 12.848 31.4952H13.2397L13.2354 31.4966ZM26.5596 20.5702V23.3568H26.0228C25.4988 23.3582 24.9733 23.3596 24.4492 23.3596C23.8139 23.3596 23.1771 23.361 22.5418 23.3624C21.8402 23.3624 21.14 23.3652 20.4385 23.3652C19.7355 23.3652 19.0325 23.368 18.3295 23.368C17.6702 23.368 17.0095 23.3694 16.3502 23.3708C15.7966 23.3708 15.2429 23.3723 14.6893 23.3737C14.4033 23.3737 14.1173 23.3737 13.8328 23.3737C13.8328 22.6693 13.8342 21.9649 13.8356 21.2591C13.8356 20.4096 13.8384 19.5587 13.8384 18.7092C14.0088 18.7092 14.1793 18.7092 14.3498 18.7092C14.8738 18.7092 15.3993 18.7078 15.9234 18.7064C16.5587 18.7064 17.1955 18.705 17.8308 18.7036C18.5324 18.7036 19.2326 18.7008 19.9341 18.7008C20.6371 18.7008 21.3401 18.698 22.0431 18.698C22.7024 18.698 23.3631 18.6966 24.0224 18.6951C24.576 18.6951 25.1297 18.6937 25.6833 18.6923C25.9749 18.6923 26.2665 18.6923 26.5582 18.6923V20.5702H26.5596ZM24.4999 29.5384H13.8229C13.8229 29.2271 13.8229 28.9172 13.8229 28.6058C13.8229 27.9198 13.8243 27.2323 13.8257 26.5462C13.8257 26.1433 13.8257 25.7404 13.8271 25.3361C13.999 25.3361 14.1709 25.3361 14.3427 25.3361C14.8668 25.3361 15.3923 25.3347 15.9163 25.3333C16.5517 25.3333 17.1884 25.3318 17.8238 25.3304C18.5254 25.3304 19.2255 25.3276 19.9271 25.3276C20.6301 25.3276 21.333 25.3248 22.036 25.3248C22.6953 25.3248 23.356 25.3234 24.0153 25.322C24.569 25.322 25.1226 25.3206 25.6763 25.3192C25.9693 25.3192 26.2637 25.3192 26.5567 25.3192V29.5412H24.4971L24.4999 29.5384ZM15.905 12.312C16.5474 12.312 17.1898 12.3106 17.8337 12.3092C18.538 12.3092 19.2424 12.3064 19.9454 12.3064C20.6526 12.3064 21.3612 12.3036 22.0684 12.3036C22.7319 12.3036 23.3941 12.3022 24.0576 12.3007C24.6183 12.3007 25.1776 12.2993 25.7383 12.2979C26.013 12.2979 26.2877 12.2979 26.5624 12.2979V16.737C26.3849 16.737 26.2088 16.737 26.0313 16.737C25.5072 16.737 24.9817 16.7384 24.4577 16.7398C23.8223 16.7398 23.1856 16.7412 22.5502 16.7426C21.8486 16.7426 21.1485 16.7454 20.4469 16.7454C19.7439 16.7454 19.041 16.7482 18.338 16.7482C17.6787 16.7482 17.018 16.7496 16.3587 16.751C15.805 16.751 15.2514 16.7525 14.6977 16.7539C14.4132 16.7539 14.1286 16.7539 13.844 16.7539C13.844 16.4651 13.844 16.1749 13.844 15.8861C13.844 15.1535 13.8454 14.4223 13.8468 13.6898C13.8468 13.2319 13.8468 12.7727 13.8482 12.3148C14.0103 12.3148 14.1709 12.3148 14.3329 12.3148C14.8569 12.3148 15.3824 12.3134 15.9065 12.312H15.905Z" fill="#0086FF"/>
<path d="M33.0543 4.2495H8.25861C7.92473 4.2495 7.58944 4.24809 7.25415 4.2495C7.24007 4.2495 7.22457 4.2495 7.21048 4.2495C6.68079 4.2495 6.22998 4.69889 6.22998 5.23V9.30979C6.22998 9.82258 6.68079 10.3128 7.20907 10.2889C7.74018 10.2649 8.18817 9.8578 8.18817 9.30979V6.2105H32.0034C32.0259 6.2105 32.0499 6.2105 32.0724 6.2105V9.08439C32.0724 9.59718 32.5232 10.0874 33.0515 10.0635C33.5826 10.0395 34.0306 9.6324 34.0306 9.08439V5.23C34.0306 4.7003 33.5812 4.25091 33.0515 4.25091L33.0543 4.2495Z" fill="#0086FF"/>
<path d="M33.0373 31.6965C32.5062 31.7205 32.0582 32.1276 32.0582 32.6756V35.6214H8.24157C8.21903 35.6214 8.19508 35.6214 8.17254 35.6214V32.6305C8.17254 32.1178 7.72174 31.6275 7.19345 31.6514C6.66234 31.6754 6.21436 32.0811 6.21436 32.6305V36.6019C6.21436 37.1316 6.66375 37.581 7.19345 37.581H31.9892C32.3245 37.581 32.6598 37.5838 32.9936 37.581C33.0077 37.581 33.0232 37.581 33.0373 37.581C33.567 37.581 34.0164 37.1316 34.0164 36.6019V32.677C34.0164 32.1642 33.5656 31.674 33.0373 31.6979V31.6965Z" fill="#0086FF"/>
</svg>
