<svg width="40" height="41" viewBox="0 0 40 41" fill="none" xmlns="http://www.w3.org/2000/svg">
<path d="M34.6176 28.6345C34.576 28.6114 34.5329 28.5914 34.4883 28.5744C34.3743 28.5236 34.2542 28.499 34.1248 28.5036H27.9892C27.7073 28.5036 27.4239 28.502 27.1421 28.5036C27.1375 28.5036 27.1344 28.5036 27.1298 28.5036C26.9819 28.4974 26.8449 28.5282 26.717 28.596C26.5846 28.6391 26.4691 28.713 26.3721 28.8178C26.1796 29.0272 26.0579 29.2844 26.0579 29.5755V35.6572C26.0579 35.9375 26.0564 36.2178 26.0579 36.4981V36.5104C26.0517 36.6583 26.0825 36.7953 26.1503 36.9232C26.1934 37.0556 26.2674 37.1711 26.3721 37.2681C26.5815 37.4606 26.8387 37.5823 27.1298 37.5823H33.2654C33.5473 37.5823 33.8306 37.5838 34.1125 37.5823C34.1171 37.5823 34.1202 37.5823 34.1248 37.5823C34.2726 37.5885 34.4097 37.5577 34.5375 37.4899C34.67 37.4468 34.7855 37.3729 34.8825 37.2681C35.075 37.0587 35.1967 36.8015 35.1967 36.5104V30.4287C35.1967 30.1484 35.1982 29.8681 35.1967 29.5878C35.1967 29.5832 35.1967 29.5801 35.1967 29.5755C35.1967 29.4661 35.1736 29.3552 35.1382 29.2474C35.0889 29.0857 35.0103 28.9348 34.8841 28.8178C34.8086 28.7361 34.7177 28.6776 34.6192 28.6345H34.6176ZM29.7325 35.4401H28.2001V30.6458H33.0545V35.4401H29.7325Z" fill="#0086FF"/>
<path d="M26.3736 13.0753C26.583 13.2678 26.8402 13.3895 27.1313 13.3895H33.2669C33.5488 13.3895 33.8321 13.391 34.114 13.3895C34.1186 13.3895 34.1217 13.3895 34.1263 13.3895C34.2741 13.3956 34.4112 13.3648 34.539 13.2971C34.6715 13.254 34.787 13.18 34.884 13.0753C35.0765 12.8659 35.1982 12.6087 35.1982 12.3176V6.18349C35.1982 5.90165 35.1997 5.61828 35.1982 5.33645C35.1982 5.33183 35.1982 5.32875 35.1982 5.32413C35.1982 5.21478 35.1751 5.1039 35.1397 4.99609C35.0904 4.83438 35.0118 4.68346 34.8856 4.56641C34.8101 4.48479 34.7192 4.42626 34.6207 4.38314C34.5791 4.36004 34.536 4.34002 34.4913 4.32308C34.3773 4.27226 34.2572 4.24761 34.1278 4.25223H27.9922C27.7104 4.25223 27.427 4.25069 27.1452 4.25223C27.1405 4.25223 27.1375 4.25223 27.1328 4.25223C26.985 4.24607 26.8479 4.27688 26.7201 4.34464C26.5876 4.38776 26.4721 4.46168 26.3751 4.56641C26.1826 4.77586 26.0609 5.03305 26.0609 5.32413V11.4582C26.0609 11.7401 26.0579 12.0234 26.0609 12.3053V12.3176C26.0548 12.4654 26.0856 12.6025 26.1533 12.7303C26.1965 12.8628 26.2704 12.9783 26.3751 13.0753H26.3736ZM31.5236 6.39448H33.056V11.2472H28.2016V6.39448H31.5236Z" fill="#0086FF"/>
<path d="M5.87336 37.5808H12.0028C12.2847 37.5808 12.5681 37.5839 12.8514 37.5808C12.856 37.5808 12.8591 37.5808 12.8637 37.5808C13.4428 37.5808 13.9341 37.0895 13.9341 36.5104V30.6458H18.0754C18.3156 30.6458 18.5574 30.6489 18.7976 30.6458C18.8007 30.6458 18.8038 30.6458 18.8084 30.6458C19.3875 30.6458 19.8788 30.1546 19.8788 29.5755V21.8782C20.4548 21.8798 21.0308 21.8828 21.6067 21.8844C22.406 21.8875 23.2053 21.8905 24.0046 21.8936C24.69 21.8967 25.3738 21.8982 26.0591 21.9013V23.5738C26.0591 23.8541 26.0575 24.1344 26.0591 24.4147V24.427C26.0529 24.5749 26.0837 24.7119 26.1515 24.8398C26.1946 24.9722 26.2685 25.0877 26.3733 25.1847C26.5827 25.3773 26.8399 25.4989 27.131 25.4989H33.2666C33.5485 25.4989 33.8318 25.5005 34.1137 25.4989C34.1183 25.4989 34.1214 25.4989 34.126 25.4989C34.2738 25.5051 34.4109 25.4743 34.5387 25.4065C34.6712 25.3634 34.7867 25.2895 34.8837 25.1847C35.0762 24.9753 35.1979 24.7181 35.1979 24.427V18.3453C35.1979 18.065 35.1994 17.7847 35.1979 17.5044C35.1979 17.4998 35.1979 17.4967 35.1979 17.4921C35.1979 17.3827 35.1748 17.2719 35.1394 17.164C35.0901 17.0023 35.0115 16.8514 34.8852 16.7344C34.8098 16.6527 34.7189 16.5942 34.6204 16.5511C34.5788 16.528 34.5356 16.508 34.491 16.491C34.377 16.4402 34.2569 16.4156 34.1275 16.4202H27.9919C27.71 16.4202 27.4267 16.4187 27.1448 16.4202C27.1402 16.4202 27.1371 16.4202 27.1325 16.4202C26.9847 16.414 26.8476 16.4448 26.7198 16.5126C26.5873 16.5557 26.4718 16.6296 26.3748 16.7344C26.1823 16.9438 26.0606 17.201 26.0606 17.4921V19.7606C25.4708 19.7591 24.8825 19.756 24.2926 19.7545C24.2233 19.7545 24.1525 19.7545 24.0832 19.7545V13.3601C24.0832 13.0166 24.0863 12.6747 24.0832 12.3313C24.0832 12.3267 24.0832 12.3221 24.0832 12.3174C24.0893 12.1696 24.0585 12.0325 23.9908 11.9047C23.9476 11.7723 23.8737 11.6568 23.769 11.5597C23.5596 11.3672 23.3024 11.2456 23.0113 11.2456H13.9326V6.18179C13.9326 5.89842 13.9341 5.61658 13.9326 5.33321C13.9326 5.32859 13.9326 5.32551 13.9326 5.32089C13.9387 5.17304 13.9079 5.03598 13.8402 4.90815C13.797 4.7757 13.7231 4.6602 13.6184 4.56317C13.412 4.37067 13.1533 4.249 12.8637 4.249H6.72964C6.44934 4.249 6.16751 4.249 5.88568 4.249C5.88106 4.249 5.87798 4.249 5.87336 4.249C5.72551 4.24284 5.58844 4.27364 5.46062 4.3414C5.32817 4.38453 5.21267 4.45845 5.11564 4.56317C4.92313 4.77262 4.80147 5.03136 4.80147 5.32089V11.4596C4.80147 11.7415 4.80147 12.0248 4.80147 12.3082V12.3205C4.80147 12.4299 4.82457 12.5408 4.85999 12.6486C4.90927 12.8103 4.98781 12.9612 5.1141 13.0782C5.18956 13.1599 5.28043 13.2184 5.37899 13.2615C5.42057 13.2846 5.4637 13.3046 5.50836 13.3216C5.62232 13.3724 5.74245 13.397 5.87182 13.3924H12.0059C12.2878 13.3924 12.5696 13.394 12.8499 13.3924C12.8545 13.3924 12.8576 13.3924 12.8622 13.3924C12.9038 13.394 12.9423 13.3924 12.9823 13.3878H21.9394V19.7452C21.924 19.7452 21.9071 19.7452 21.8917 19.7452C21.2032 19.7421 20.5133 19.7406 19.8249 19.7375C19.4907 19.7375 19.1549 19.7314 18.8207 19.7344C18.8161 19.7344 18.8115 19.7344 18.8069 19.7344C18.2278 19.7329 17.7365 20.2273 17.7365 20.8048V28.5067H13.9326V18.2652C13.9326 18.0188 13.9341 17.7724 13.9326 17.526C13.9326 17.5152 13.9326 17.5044 13.9326 17.4936C13.9326 16.9146 13.4413 16.4233 12.8622 16.4233H6.73426C6.45242 16.4233 6.16905 16.4202 5.88568 16.4233C5.88106 16.4233 5.87798 16.4233 5.87336 16.4233C5.29429 16.4202 4.80147 16.9115 4.80147 17.4905V35.7373C4.80147 35.9837 4.79993 36.2302 4.80147 36.4766C4.80147 36.4873 4.80147 36.4981 4.80147 36.5089C4.80147 36.6182 4.82457 36.7291 4.85999 36.8369C4.90927 36.9986 4.98781 37.1496 5.1141 37.2666C5.30045 37.453 5.60384 37.5916 5.87182 37.5808H5.87336ZM31.5233 18.5609H33.0556V23.3551H28.2013V18.5609H31.5233ZM8.47916 11.2486H6.94371V6.39124H11.7919V11.2486H8.47762H8.47916ZM10.2533 18.5609H11.7934V35.4386H6.94371V18.5609H10.2518H10.2533Z" fill="#0086FF"/>
<path d="M34.6176 28.6345C34.576 28.6114 34.5329 28.5914 34.4883 28.5744C34.3743 28.5236 34.2542 28.499 34.1248 28.5036H27.9892C27.7073 28.5036 27.4239 28.502 27.1421 28.5036C27.1375 28.5036 27.1344 28.5036 27.1298 28.5036C26.9819 28.4974 26.8449 28.5282 26.717 28.596C26.5846 28.6391 26.4691 28.713 26.3721 28.8178C26.1796 29.0272 26.0579 29.2844 26.0579 29.5755V35.6572C26.0579 35.9375 26.0564 36.2178 26.0579 36.4981V36.5104C26.0517 36.6583 26.0825 36.7953 26.1503 36.9232C26.1934 37.0556 26.2674 37.1711 26.3721 37.2681C26.5815 37.4606 26.8387 37.5823 27.1298 37.5823H33.2654C33.5473 37.5823 33.8306 37.5838 34.1125 37.5823C34.1171 37.5823 34.1202 37.5823 34.1248 37.5823C34.2726 37.5885 34.4097 37.5577 34.5375 37.4899C34.67 37.4468 34.7855 37.3729 34.8825 37.2681C35.075 37.0587 35.1967 36.8015 35.1967 36.5104V30.4287C35.1967 30.1484 35.1982 29.8681 35.1967 29.5878C35.1967 29.5832 35.1967 29.5801 35.1967 29.5755C35.1967 29.4661 35.1736 29.3552 35.1382 29.2474C35.0889 29.0857 35.0103 28.9348 34.8841 28.8178C34.8086 28.7361 34.7177 28.6776 34.6192 28.6345H34.6176ZM29.7325 35.4401H28.2001V30.6458H33.0545V35.4401H29.7325Z" fill="#0086FF"/>
<path d="M26.3736 13.0753C26.583 13.2678 26.8402 13.3895 27.1313 13.3895H33.2669C33.5488 13.3895 33.8321 13.391 34.114 13.3895C34.1186 13.3895 34.1217 13.3895 34.1263 13.3895C34.2741 13.3956 34.4112 13.3648 34.539 13.2971C34.6715 13.254 34.787 13.18 34.884 13.0753C35.0765 12.8659 35.1982 12.6087 35.1982 12.3176V6.18349C35.1982 5.90165 35.1997 5.61828 35.1982 5.33645C35.1982 5.33183 35.1982 5.32875 35.1982 5.32413C35.1982 5.21478 35.1751 5.1039 35.1397 4.99609C35.0904 4.83438 35.0118 4.68346 34.8856 4.56641C34.8101 4.48479 34.7192 4.42626 34.6207 4.38314C34.5791 4.36004 34.536 4.34002 34.4913 4.32308C34.3773 4.27226 34.2572 4.24761 34.1278 4.25223H27.9922C27.7104 4.25223 27.427 4.25069 27.1452 4.25223C27.1405 4.25223 27.1375 4.25223 27.1328 4.25223C26.985 4.24607 26.8479 4.27688 26.7201 4.34464C26.5876 4.38776 26.4721 4.46168 26.3751 4.56641C26.1826 4.77586 26.0609 5.03305 26.0609 5.32413V11.4582C26.0609 11.7401 26.0579 12.0234 26.0609 12.3053V12.3176C26.0548 12.4654 26.0856 12.6025 26.1533 12.7303C26.1965 12.8628 26.2704 12.9783 26.3751 13.0753H26.3736ZM31.5236 6.39448H33.056V11.2472H28.2016V6.39448H31.5236Z" fill="#0086FF"/>
<path d="M5.87336 37.5808H12.0028C12.2847 37.5808 12.5681 37.5839 12.8514 37.5808C12.856 37.5808 12.8591 37.5808 12.8637 37.5808C13.4428 37.5808 13.9341 37.0895 13.9341 36.5104V30.6458H18.0754C18.3156 30.6458 18.5574 30.6489 18.7976 30.6458C18.8007 30.6458 18.8038 30.6458 18.8084 30.6458C19.3875 30.6458 19.8788 30.1546 19.8788 29.5755V21.8782C20.4548 21.8798 21.0308 21.8828 21.6067 21.8844C22.406 21.8875 23.2053 21.8905 24.0046 21.8936C24.69 21.8967 25.3738 21.8982 26.0591 21.9013V23.5738C26.0591 23.8541 26.0575 24.1344 26.0591 24.4147V24.427C26.0529 24.5749 26.0837 24.7119 26.1515 24.8398C26.1946 24.9722 26.2685 25.0877 26.3733 25.1847C26.5827 25.3773 26.8399 25.4989 27.131 25.4989H33.2666C33.5485 25.4989 33.8318 25.5005 34.1137 25.4989C34.1183 25.4989 34.1214 25.4989 34.126 25.4989C34.2738 25.5051 34.4109 25.4743 34.5387 25.4065C34.6712 25.3634 34.7867 25.2895 34.8837 25.1847C35.0762 24.9753 35.1979 24.7181 35.1979 24.427V18.3453C35.1979 18.065 35.1994 17.7847 35.1979 17.5044C35.1979 17.4998 35.1979 17.4967 35.1979 17.4921C35.1979 17.3827 35.1748 17.2719 35.1394 17.164C35.0901 17.0023 35.0115 16.8514 34.8852 16.7344C34.8098 16.6527 34.7189 16.5942 34.6204 16.5511C34.5788 16.528 34.5356 16.508 34.491 16.491C34.377 16.4402 34.2569 16.4156 34.1275 16.4202H27.9919C27.71 16.4202 27.4267 16.4187 27.1448 16.4202C27.1402 16.4202 27.1371 16.4202 27.1325 16.4202C26.9847 16.414 26.8476 16.4448 26.7198 16.5126C26.5873 16.5557 26.4718 16.6296 26.3748 16.7344C26.1823 16.9438 26.0606 17.201 26.0606 17.4921V19.7606C25.4708 19.7591 24.8825 19.756 24.2926 19.7545C24.2233 19.7545 24.1525 19.7545 24.0832 19.7545V13.3601C24.0832 13.0166 24.0863 12.6747 24.0832 12.3313C24.0832 12.3267 24.0832 12.3221 24.0832 12.3174C24.0893 12.1696 24.0585 12.0325 23.9908 11.9047C23.9476 11.7723 23.8737 11.6568 23.769 11.5597C23.5596 11.3672 23.3024 11.2456 23.0113 11.2456H13.9326V6.18179C13.9326 5.89842 13.9341 5.61658 13.9326 5.33321C13.9326 5.32859 13.9326 5.32551 13.9326 5.32089C13.9387 5.17304 13.9079 5.03598 13.8402 4.90815C13.797 4.7757 13.7231 4.6602 13.6184 4.56317C13.412 4.37067 13.1533 4.249 12.8637 4.249H6.72964C6.44934 4.249 6.16751 4.249 5.88568 4.249C5.88106 4.249 5.87798 4.249 5.87336 4.249C5.72551 4.24284 5.58844 4.27364 5.46062 4.3414C5.32817 4.38453 5.21267 4.45845 5.11564 4.56317C4.92313 4.77262 4.80147 5.03136 4.80147 5.32089V11.4596C4.80147 11.7415 4.80147 12.0248 4.80147 12.3082V12.3205C4.80147 12.4299 4.82457 12.5408 4.85999 12.6486C4.90927 12.8103 4.98781 12.9612 5.1141 13.0782C5.18956 13.1599 5.28043 13.2184 5.37899 13.2615C5.42057 13.2846 5.4637 13.3046 5.50836 13.3216C5.62232 13.3724 5.74245 13.397 5.87182 13.3924H12.0059C12.2878 13.3924 12.5696 13.394 12.8499 13.3924C12.8545 13.3924 12.8576 13.3924 12.8622 13.3924C12.9038 13.394 12.9423 13.3924 12.9823 13.3878H21.9394V19.7452C21.924 19.7452 21.9071 19.7452 21.8917 19.7452C21.2032 19.7421 20.5133 19.7406 19.8249 19.7375C19.4907 19.7375 19.1549 19.7314 18.8207 19.7344C18.8161 19.7344 18.8115 19.7344 18.8069 19.7344C18.2278 19.7329 17.7365 20.2273 17.7365 20.8048V28.5067H13.9326V18.2652C13.9326 18.0188 13.9341 17.7724 13.9326 17.526C13.9326 17.5152 13.9326 17.5044 13.9326 17.4936C13.9326 16.9146 13.4413 16.4233 12.8622 16.4233H6.73426C6.45242 16.4233 6.16905 16.4202 5.88568 16.4233C5.88106 16.4233 5.87798 16.4233 5.87336 16.4233C5.29429 16.4202 4.80147 16.9115 4.80147 17.4905V35.7373C4.80147 35.9837 4.79993 36.2302 4.80147 36.4766C4.80147 36.4873 4.80147 36.4981 4.80147 36.5089C4.80147 36.6182 4.82457 36.7291 4.85999 36.8369C4.90927 36.9986 4.98781 37.1496 5.1141 37.2666C5.30045 37.453 5.60384 37.5916 5.87182 37.5808H5.87336ZM31.5233 18.5609H33.0556V23.3551H28.2013V18.5609H31.5233ZM8.47916 11.2486H6.94371V6.39124H11.7919V11.2486H8.47762H8.47916ZM10.2533 18.5609H11.7934V35.4386H6.94371V18.5609H10.2518H10.2533Z" fill="#0086FF"/>
</svg>
