<svg width="40" height="40" viewBox="0 0 40 40" fill="none" xmlns="http://www.w3.org/2000/svg">
<path d="M32.5 5.83337L30 3.33337L27.5 5.83337L25 3.33337L22.5 5.83337L20 3.33337L17.5 5.83337L15 3.33337L12.5 5.83337L10 3.33337V26.6667H5V31.6667C5 34.4334 7.23333 36.6667 10 36.6667H30C32.7667 36.6667 35 34.4334 35 31.6667V3.33337L32.5 5.83337ZM25 33.3334H10C9.08333 33.3334 8.33333 32.5834 8.33333 31.6667V30H25V33.3334ZM31.6667 31.6667C31.6667 32.5834 30.9167 33.3334 30 33.3334C29.0833 33.3334 28.3333 32.5834 28.3333 31.6667V26.6667H13.3333V8.33337H31.6667V31.6667Z" fill="#0086FF"/>
<path d="M25 11.6667H15V15H25V11.6667Z" fill="#0086FF"/>
<path d="M30 11.6667H26.6667V15H30V11.6667Z" fill="#0086FF"/>
<path d="M25 16.6667H15V20H25V16.6667Z" fill="#0086FF"/>
<path d="M30 16.6667H26.6667V20H30V16.6667Z" fill="#0086FF"/>
</svg>
