<svg width="40" height="41" viewBox="0 0 40 41" fill="none" xmlns="http://www.w3.org/2000/svg">
<path d="M21.4772 21.7237C21.8477 21.9069 22.2394 22.0562 22.6493 22.1168C22.8916 22.1534 23.1339 22.1858 23.379 22.1858C23.634 22.1858 23.8876 22.152 24.1398 22.1112C24.306 22.0844 24.4708 22.0449 24.63 21.9928C24.8597 21.9167 25.0851 21.8224 25.3006 21.7139C25.4471 21.6406 25.588 21.5547 25.7204 21.4589C25.9134 21.3208 26.105 21.1729 26.2769 21.0067C26.4516 20.8376 26.5981 20.6489 26.7446 20.4544C26.9925 20.1276 27.1686 19.7571 27.3081 19.3725C27.3644 19.2176 27.4081 19.057 27.4391 18.8949C27.487 18.647 27.5208 18.392 27.5293 18.1384C27.5349 17.9722 27.5279 17.8074 27.5067 17.6426C27.4757 17.3918 27.4433 17.1439 27.3743 16.9001C27.3067 16.6649 27.2109 16.4367 27.108 16.2141C27.0404 16.0676 26.9615 15.9253 26.8728 15.7914C26.7404 15.59 26.591 15.397 26.429 15.2181C26.322 15.0983 26.205 14.987 26.0811 14.8856C25.8951 14.7335 25.7021 14.5827 25.495 14.4602C25.2851 14.3348 25.0597 14.2404 24.8329 14.1488C24.4455 13.991 24.0285 13.9206 23.6143 13.8896C23.4467 13.8769 23.2762 13.8783 23.1086 13.8924C22.8606 13.9136 22.6099 13.946 22.3676 14.0051C22.2055 14.0446 22.0464 14.0967 21.8928 14.1615C21.666 14.2559 21.4434 14.3503 21.2335 14.4771C21.0292 14.601 20.839 14.749 20.6559 14.9011C20.5305 15.0054 20.4136 15.1195 20.3051 15.242C20.0389 15.5435 19.7994 15.876 19.6346 16.2437C19.5345 16.4676 19.4373 16.6945 19.3725 16.9325C19.3063 17.1748 19.2725 17.427 19.2443 17.6764C19.1978 18.0934 19.2401 18.5188 19.3232 18.9273C19.3556 19.0894 19.4007 19.2485 19.4585 19.4021C19.543 19.6303 19.6388 19.8585 19.7585 20.0713C19.8769 20.284 20.0234 20.4742 20.1741 20.6658C20.2727 20.7926 20.3798 20.9123 20.4967 21.0222C20.6714 21.1884 20.8644 21.3377 21.0616 21.4758C21.1941 21.5688 21.3321 21.6519 21.4772 21.7223V21.7237ZM21.3547 17.1777C21.4293 17.0185 21.5167 16.8663 21.6167 16.7226C21.7519 16.5578 21.9027 16.4057 22.0689 16.2704C22.2126 16.1704 22.3661 16.0831 22.5239 16.0084C22.7057 15.9408 22.893 15.8886 23.0832 15.8548C23.2804 15.8365 23.4777 15.8365 23.6749 15.8548C23.8651 15.8886 24.0524 15.9408 24.2342 16.0084C24.3934 16.0831 24.5455 16.1704 24.6892 16.2704C24.854 16.4057 25.0062 16.5564 25.1414 16.7226C25.2414 16.8663 25.3288 17.0199 25.4034 17.1777C25.4711 17.3594 25.5232 17.5468 25.557 17.7369C25.5753 17.9342 25.5753 18.1314 25.557 18.3286C25.5232 18.5188 25.4711 18.7062 25.4034 18.8879C25.3288 19.0471 25.2414 19.1992 25.1414 19.3429C25.0062 19.5078 24.8554 19.6599 24.6892 19.7951C24.5455 19.8952 24.3919 19.9825 24.2342 20.0572C24.0524 20.1248 23.8651 20.1769 23.6735 20.2107C23.5749 20.2192 23.4777 20.2262 23.379 20.2262C23.2804 20.2262 23.1832 20.2206 23.086 20.2107C22.8944 20.1769 22.7071 20.1248 22.5239 20.0572C22.3647 19.9825 22.2126 19.8952 22.0689 19.7951C21.9041 19.6599 21.7519 19.5092 21.6167 19.3429C21.5167 19.1992 21.4293 19.0457 21.3547 18.8879C21.287 18.7062 21.2349 18.5188 21.2011 18.3286C21.1828 18.1314 21.1828 17.9342 21.2011 17.7369C21.2349 17.5454 21.287 17.3594 21.3547 17.1777Z" fill="#0086FF"/>
<path d="M15.1573 11.1411H11.8552C11.3255 11.1411 10.8761 11.5905 10.8761 12.1202V28.9577C10.8761 29.1846 10.8747 29.4128 10.8761 29.641C10.8761 29.6509 10.8761 29.6607 10.8761 29.6706C10.8761 30.2003 11.3255 30.6497 11.8552 30.6497H16.8366C16.9366 30.6497 17.038 30.6285 17.1367 30.5961C17.2846 30.5511 17.4226 30.4792 17.5297 30.3637C17.7002 30.1932 17.827 29.9157 17.8171 29.6706V12.833C17.8171 12.6062 17.8185 12.378 17.8171 12.1498C17.8171 12.1399 17.8171 12.1301 17.8171 12.1202C17.8171 11.5905 17.3677 11.1411 16.838 11.1411H15.1588H15.1573ZM12.8357 28.6915V13.1007H15.8575V28.6915H12.8357Z" fill="#0086FF"/>
<path d="M20.9243 30.1961C21.1159 30.3721 21.3512 30.4834 21.6174 30.4834H30.3799C30.4983 30.4834 30.618 30.4834 30.7364 30.4834C30.742 30.4834 30.7462 30.4834 30.7519 30.4834C30.8519 30.4834 30.9533 30.4623 31.0519 30.4299C31.1998 30.3848 31.3379 30.313 31.445 30.1975C31.5196 30.1284 31.5732 30.0453 31.6126 29.9552C31.6337 29.9171 31.6521 29.8777 31.6676 29.8368C31.714 29.7326 31.7366 29.6227 31.7324 29.5044V25.1964C31.7324 24.9963 31.7338 24.7977 31.7324 24.5976V24.5892C31.738 24.4539 31.7098 24.3286 31.6478 24.2116C31.6084 24.0905 31.5408 23.9848 31.445 23.8961C31.2534 23.72 31.0181 23.6087 30.7519 23.6087H21.9893C21.8696 23.6087 21.7513 23.6087 21.6329 23.6087C21.6273 23.6087 21.6231 23.6087 21.6174 23.6087C21.4822 23.603 21.3568 23.6312 21.2399 23.6932C21.1187 23.7326 21.0131 23.8003 20.9243 23.8961C20.7482 24.0877 20.6369 24.3229 20.6369 24.5892V28.8972C20.6369 29.0972 20.6355 29.2959 20.6369 29.4959V29.5044C20.6313 29.6396 20.6595 29.765 20.7215 29.8819C20.7609 30.0031 20.8285 30.1087 20.9243 30.1975V30.1961ZM23.5094 25.5683H29.7728V28.5239H22.5965V25.5683H23.5094Z" fill="#0086FF"/>
<path d="M7.66263 10.2888C8.19373 10.2648 8.64172 9.85771 8.64172 9.3097V6.21042H32.4569C32.4794 6.21042 32.5034 6.21042 32.5259 6.21042V9.0843C32.5259 9.59709 32.9767 10.0873 33.505 10.0634C34.0361 10.0394 34.4841 9.63231 34.4841 9.0843V5.22992C34.4841 4.70023 34.0347 4.25083 33.505 4.25083H8.71075C8.37687 4.24942 8.04159 4.24802 7.7063 4.24942C7.69221 4.24942 7.67672 4.24942 7.66263 4.24942C7.13293 4.24942 6.68213 4.69882 6.68213 5.22992V9.3097C6.68213 9.82249 7.13293 10.3127 7.66122 10.2888H7.66263Z" fill="#0086FF"/>
<path d="M13.0003 37.5808H32.4398C32.7751 37.5808 33.1104 37.5837 33.4443 37.5808C33.4584 37.5808 33.4739 37.5808 33.488 37.5808C34.0176 37.5808 34.467 37.1314 34.467 36.6017V32.6769C34.467 32.1641 34.0162 31.6739 33.488 31.6978C32.9568 31.7218 32.5089 32.1289 32.5089 32.6769V35.6227H8.69371C8.67117 35.6227 8.64723 35.6227 8.62469 35.6227V32.6318C8.62469 32.1191 8.17388 31.6288 7.64559 31.6528C7.11449 31.6767 6.6665 32.0824 6.6665 32.6318V36.6032C6.6665 37.1328 7.1159 37.5822 7.64559 37.5822H13.0017L13.0003 37.5808Z" fill="#0086FF"/>
</svg>
