<svg width="40" height="41" viewBox="0 0 40 41" fill="none" xmlns="http://www.w3.org/2000/svg">
<path d="M13.2627 27.6594C11.5758 25.9094 10.5345 23.5324 10.5345 20.9155C10.5345 16.9591 12.9115 13.5495 16.3113 12.032L15.4975 10.0792C11.3347 11.9157 8.4209 16.0798 8.4209 20.9155C8.4209 24.1149 9.69845 27.02 11.7688 29.1534L13.264 27.6594H13.2627Z" fill="#0086FF"/>
<path d="M20.0159 13.9495C16.1746 13.9495 13.0493 17.0747 13.0493 20.916C13.0493 20.916 13.0493 20.916 13.0493 20.9173H15.1641C15.1641 18.241 17.3408 16.0643 20.0159 16.0643C21.3553 16.0643 22.5685 16.6097 23.4478 17.4903L24.9443 15.9975C23.6828 14.7336 21.939 13.9507 20.0159 13.9507V13.9495Z" fill="#0086FF"/>
<path d="M32.0981 20.9168C32.0981 17.5826 30.7105 14.5686 28.4856 12.4155L26.9978 13.9156C28.8356 15.6854 29.9833 18.1688 29.9833 20.9168C29.9833 25.0018 27.4504 28.5042 23.8726 29.9425L24.6962 31.8904C29.031 30.1305 32.0969 25.8761 32.0969 20.9168H32.0981Z" fill="#0086FF"/>
<path d="M26.456 23.5636L24.5007 22.7597C23.7735 24.5221 22.0371 25.7662 20.0138 25.7662C19.3608 25.7662 18.7375 25.6351 18.1686 25.4001L17.3647 27.3554C18.1822 27.6931 19.0764 27.8798 20.0151 27.8798C22.9189 27.8798 25.4122 26.0927 26.4573 23.5623L26.456 23.5636Z" fill="#0086FF"/>
<path d="M20.2599 6.36369C28.2839 6.36369 34.8114 12.8924 34.8114 20.9164C34.8114 22.8766 34.4194 24.7466 33.7132 26.4545L35.6685 27.2596C36.4773 25.3031 36.9262 23.1611 36.9262 20.9164C36.9262 11.7262 29.4489 4.24887 20.2599 4.24887C15.6345 4.24887 11.4445 6.14355 8.42188 9.19706L9.92451 10.6836C12.5637 8.01845 16.222 6.36369 20.2599 6.36369Z" fill="#0086FF"/>
<path d="M20.2603 37.5822C22.4976 37.5822 24.6309 37.1357 26.5825 36.3331L25.7799 34.3765C24.0769 35.0778 22.2131 35.4673 20.2603 35.4673C12.2363 35.4673 5.7076 28.9386 5.7076 20.9146C5.7076 20.9035 5.7076 20.8911 5.7076 20.88L3.59277 20.8751C3.59277 20.8887 3.59277 20.901 3.59277 20.9146C3.59277 30.1048 11.0701 37.5822 20.2603 37.5822Z" fill="#0086FF"/>
</svg>
